<svg id="Layer_1" data-name="Layer 1" xmlns="http://www.w3.org/2000/svg" viewBox="0 0 122.87 122.87"><title>remove</title><path d="M18,18A61.45,61.45,0,1,1,0,61.44,61.28,61.28,0,0,1,18,18ZM77.38,39l6.53,6.54a4,4,0,0,1,0,5.63L73.6,61.44,83.91,71.75a4,4,0,0,1,0,5.63l-6.53,6.53a4,4,0,0,1-5.63,0L61.44,73.6,51.13,83.91a4,4,0,0,1-5.63,0L39,77.38a4,4,0,0,1,0-5.63L49.28,61.44,39,51.13a4,4,0,0,1,0-5.63L45.5,39a4,4,0,0,1,5.63,0L61.44,49.28,71.75,39a4,4,0,0,1,5.63,0ZM61.44,10.54a50.91,50.91,0,1,0,36,14.91,50.83,50.83,0,0,0-36-14.91Z"/></svg>