<svg width="20" height="17" viewBox="0 0 20 17" fill="none" xmlns="http://www.w3.org/2000/svg">
<path d="M19.5654 0.482941C19.2756 0.193176 18.9375 0 18.5029 0C18.1165 0 17.7302 0.144882 17.4404 0.482941L6.38106 12.5565L2.46923 8.54806C2.17947 8.2583 1.79312 8.11341 1.40676 8.11341C1.02041 8.11341 0.634057 8.30659 0.392587 8.59635C-0.138649 9.22418 -0.138649 10.1901 0.440881 10.7696L5.41518 15.8405C5.70494 16.1302 6.043 16.2751 6.42935 16.2751C6.81571 16.2751 7.20206 16.1302 7.49182 15.7922L19.5654 2.60788C20.1449 2.07665 20.1449 1.06247 19.5654 0.482941Z" fill="#3DABA4"/>
</svg>
