<svg width="13" height="16" viewBox="0 0 13 16" fill="none" xmlns="http://www.w3.org/2000/svg">
<path d="M12.2105 5.62194V15.8517C12.2105 16 12.0615 16 11.9126 16H2.82433C2.67534 16 2.52634 15.8517 2.52634 15.8517V14.6657H10.4227C10.5717 14.6657 10.7207 14.5174 10.7207 14.3692V5.47368H12.0616C12.0616 5.47368 12.2105 5.47368 12.2105 5.62194Z" fill="white"/>
<path d="M6.96817 0.147583L0.444757 0C0.14824 0 0 0.14759 0 0.442761V13.873C0 14.1682 0.14824 14.3158 0.444757 14.3158H10.0816C10.3781 14.3158 10.5263 14.1682 10.5263 13.873V3.68964L6.96817 0.147583ZM6.96817 3.54205V1.47585L9.04373 3.54205H6.96817ZM9.63681 4.27998V13.4303H0.741293V0.88551H6.07856V4.27998H9.63681Z" fill="white"/>
</svg>
