<svg width="13" height="17" viewBox="0 0 13 17" fill="none" xmlns="http://www.w3.org/2000/svg">
<path d="M12.4584 5.82994V16.0598C12.4584 16.208 12.3093 16.208 12.1604 16.208H3.07213C2.92314 16.208 2.77414 16.0598 2.77414 16.0598V14.8737H10.6705C10.8195 14.8737 10.9685 14.7254 10.9685 14.5772V5.68169H12.3094C12.3094 5.68169 12.4584 5.68169 12.4584 5.82994Z" fill="#3DABA4"/>
<path d="M7.21597 0.355591L0.69256 0.208008C0.396043 0.208008 0.247803 0.355598 0.247803 0.650769V14.081C0.247803 14.3762 0.396043 14.5238 0.69256 14.5238H10.3294C10.6259 14.5238 10.7741 14.3762 10.7741 14.081V3.89764L7.21597 0.355591ZM7.21597 3.75006V1.68386L9.29154 3.75006H7.21597ZM9.88461 4.48799V13.6383H0.989095V1.09352H6.32637V4.48799H9.88461Z" fill="#3DABA4"/>
</svg>
